HIERARCHY
ROOT hip
{
  OFFSET 0 0 0
  CHANNELS 6 Xposition Yposition Zposition Zrotation Yrotation Xrotation
  JOINT abdomen
  {
    OFFSET 0 20.6881 -0.73152
    CHANNELS 3 Zrotation Xrotation Yrotation
    JOINT chest
    {
      OFFSET 0 11.7043 -0.48768
      CHANNELS 3 Zrotation Xrotation Yrotation
      JOINT neck
      {
        OFFSET 0 22.1894 -2.19456
        CHANNELS 3 Zrotation Xrotation Yrotation
        JOINT head
        {
          OFFSET -0.24384 7.07133 1.2192
          CHANNELS 3 Zrotation Xrotation Yrotation
          JOINT leftEye
          {
            OFFSET 4.14528 8.04674 8.04672
            CHANNELS 3 Zrotation Xrotation Yrotation
            End Site
            {
              OFFSET 1 0 0
            }
          }
          JOINT rightEye
          {
            OFFSET -3.6576 8.04674 8.04672
            CHANNELS 3 Zrotation Xrotation Yrotation
            End Site
            {
              OFFSET 1 0 0
            }
          }
        }
      }
      JOINT rCollar
      {
        OFFSET -2.68224 19.2634 -4.8768
        CHANNELS 3 Zrotation Xrotation Yrotation
        JOINT rShldr
        {
          OFFSET -8.77824 -1.95073 1.46304
          CHANNELS 3 Zrotation Xrotation Yrotation
          JOINT rForeArm
          {
            OFFSET -28.1742 -1.7115 0.48768
            CHANNELS 3 Zrotation Xrotation Yrotation
            JOINT rHand
            {
              OFFSET -22.5879 0.773209 7.07136
              CHANNELS 3 Zrotation Xrotation Yrotation
              JOINT rThumb1
              {
                OFFSET -1.2192 -0.487915 3.41376
                CHANNELS 3 Zrotation Xrotation Yrotation
                JOINT rThumb2
                {
                  OFFSET -3.37035 -0.52449 3.41376
                  CHANNELS 3 Zrotation Xrotation Yrotation
                  End Site
                  {
                    OFFSET -1.78271 -1.18214 1.43049
                  }
                }
              }
              JOINT rIndex1
              {
                OFFSET -7.75947 0.938293 5.60832
                CHANNELS 3 Zrotation Xrotation Yrotation
                JOINT rIndex2
                {
                  OFFSET -2.54057 -0.884171 1.56538
                  CHANNELS 3 Zrotation Xrotation Yrotation
                  End Site
                  {
                    OFFSET -1.62519 -0.234802 1.16502
                  }
                }
              }
              JOINT rMid1
              {
                OFFSET -8.24714 1.18213 3.41376
                CHANNELS 3 Zrotation Xrotation Yrotation
                JOINT rMid2
                {
                  OFFSET -3.10165 -0.590103 1.0647
                  CHANNELS 3 Zrotation Xrotation Yrotation
                  End Site
                  {
                    OFFSET -2.48547 -0.328903 0.83742
                  }
                }
              }
              JOINT rRing1
              {
                OFFSET -8.82822 0.546677 1.51678
                CHANNELS 3 Zrotation Xrotation Yrotation
                JOINT rRing2
                {
                  OFFSET -2.60934 -0.819778 -0.0198488
                  CHANNELS 3 Zrotation Xrotation Yrotation
                  End Site
                  {
                    OFFSET -2.33842 -0.294052 0.168128
                  }
                }
              }
              JOINT rPinky1
              {
                OFFSET -8.27202 -0.0477905 -0.4584
                CHANNELS 3 Zrotation Xrotation Yrotation
                JOINT rPinky2
                {
                  OFFSET -1.82734 -0.647385 -0.700984
                  CHANNELS 3 Zrotation Xrotation Yrotation
                  End Site
                  {
                    OFFSET -1.69225 -0.51767 -0.607171
                  }
                }
              }
            }
          }
        }
      }
      JOINT lCollar
      {
        OFFSET 2.68224 19.2634 -4.8768
        CHANNELS 3 Zrotation Xrotation Yrotation
        JOINT lShldr
        {
          OFFSET 8.77824 -1.95073 1.46304
          CHANNELS 3 Zrotation Xrotation Yrotation
          JOINT lForeArm
          {
            OFFSET 28.1742 -1.7115 0.48768
            CHANNELS 3 Zrotation Xrotation Yrotation
            JOINT lHand
            {
              OFFSET 22.5879 0.773209 7.07136
              CHANNELS 3 Zrotation Xrotation Yrotation
              JOINT lThumb1
              {
                OFFSET 1.2192 -0.487915 3.41376
                CHANNELS 3 Zrotation Xrotation Yrotation
                JOINT lThumb2
                {
                  OFFSET 3.37035 -0.52449 3.41376
                  CHANNELS 3 Zrotation Xrotation Yrotation
                  End Site
                  {
                    OFFSET 1.78271 -1.18214 1.43049
                  }
                }
              }
              JOINT lIndex1
              {
                OFFSET 7.75947 0.938293 5.60832
                CHANNELS 3 Zrotation Xrotation Yrotation
                JOINT lIndex2
                {
                  OFFSET 2.54057 -0.884171 1.56538
                  CHANNELS 3 Zrotation Xrotation Yrotation
                  End Site
                  {
                    OFFSET 1.62519 -0.234802 1.16502
                  }
                }
              }
              JOINT lMid1
              {
                OFFSET 8.24714 1.18213 3.41376
                CHANNELS 3 Zrotation Xrotation Yrotation
                JOINT lMid2
                {
                  OFFSET 3.10165 -0.590103 1.0647
                  CHANNELS 3 Zrotation Xrotation Yrotation
                  End Site
                  {
                    OFFSET 2.48547 -0.328903 0.83742
                  }
                }
              }
              JOINT lRing1
              {
                OFFSET 8.82822 0.546677 1.51678
                CHANNELS 3 Zrotation Xrotation Yrotation
                JOINT lRing2
                {
                  OFFSET 2.60934 -0.819778 -0.0198488
                  CHANNELS 3 Zrotation Xrotation Yrotation
                  End Site
                  {
                    OFFSET 2.33842 -0.294052 0.168128
                  }
                }
              }
              JOINT lPinky1
              {
                OFFSET 8.27202 -0.0477905 -0.4584
                CHANNELS 3 Zrotation Xrotation Yrotation
                JOINT lPinky2
                {
                  OFFSET 1.82734 -0.647385 -0.700984
                  CHANNELS 3 Zrotation Xrotation Yrotation
                  End Site
                  {
                    OFFSET 1.69225 -0.51767 -0.607171
                  }
                }
              }
            }
          }
        }
      }
    }
  }
  JOINT rButtock
  {
    OFFSET -8.77824 4.35084 1.2192
    CHANNELS 3 Zrotation Xrotation Yrotation
    JOINT rThigh
    {
      OFFSET 0 -1.70687 -2.19456
      CHANNELS 3 Zrotation Xrotation Yrotation
      JOINT rShin
      {
        OFFSET 0 -36.8199 0.73152
        CHANNELS 3 Zrotation Xrotation Yrotation
        JOINT rFoot
        {
          OFFSET 0.73152 -45.1104 -5.12064
          CHANNELS 3 Zrotation Xrotation Yrotation
          End Site
          {
            OFFSET -1.1221 -3.69964 12.103
          }
        }
      }
    }
  }
  JOINT lButtock
  {
    OFFSET 8.77824 4.35084 1.2192
    CHANNELS 3 Zrotation Xrotation Yrotation
    JOINT lThigh
    {
      OFFSET 0 -1.70687 -2.19456
      CHANNELS 3 Zrotation Xrotation Yrotation
      JOINT lShin
      {
        OFFSET 0 -36.8199 0.73152
        CHANNELS 3 Zrotation Xrotation Yrotation
        JOINT lFoot
        {
          OFFSET -0.73152 -45.1104 -5.12064
          CHANNELS 3 Zrotation Xrotation Yrotation
          End Site
          {
            OFFSET 1.1221 -3.69964 12.103
          }
        }
      }
    }
  }
}
MOTION
Frames:	7
Frame Time:	0.00833333
6.68802 69.8321 60.5167 -170.625 -7.0567 -158.727 23.9022 -4.47882 5.2146 -5.1791 -4.48336 0.334363 -4.41344 -7.30785 -0.681089 -1.01141 1.75275 -0.125333 -0.0 0.0 0.0 -0.0 0.0 0.0 -2.42982e-13 4.62041e-14 -4.45309e-14 43.7384 -1.33592 -2.40809 -9.5108 -3.86576 16.8969 -0.344809 9.09997 1.49144 6.5808e-10 -7.61366e-10 -2.28294e-10 1.11656e-09 -1.32954e-09 -4.08084e-10 6.58082e-10 -7.61364e-10 -2.28303e-10 7.73091 5.47488 0.417314 6.58077e-10 -7.61363e-10 -2.28288e-10 2.90554 0.965183 0.102902 6.5809e-10 -7.61364e-10 -2.28295e-10 10.2786 0.731801 0.0259123 6.58081e-10 -7.61369e-10 -2.28289e-10 2.22167 -0.733487 -0.20892 -2.42913e-13 4.62313e-14 -4.47545e-14 -42.2525 9.81175 10.6028 14.0067 -6.95674 -25.5735 0.192229 -11.8225 1.6759 -3.14624e-11 4.84585e-10 -2.29969e-10 -5.25165e-11 8.34619e-10 -4.03136e-10 -3.14627e-11 4.84585e-10 -2.29958e-10 -7.73091 5.47488 -0.417314 -3.14614e-11 4.84584e-10 -2.29966e-10 -2.90554 0.965183 -0.102902 -3.14698e-11 4.84584e-10 -2.29965e-10 -10.2786 0.731801 -0.0259123 -3.14565e-11 4.84585e-10 -2.29974e-10 -2.22167 -0.733487 0.20892 -2.03217e-16 0.0 -3.88251e-19 32.0934 -50.9371 16.3924 -1.56057 67.2137 2.4114 -22.5074 -33.3556 -33.2514 2.03217e-16 0.0 3.88251e-19 25.0344 -65.8519 10.5954 125.81 88.7037 -126.485 12.7013 -17.9998 27.4006
6.5816 69.8238 59.7294 -170.788 -5.4589 -159.059 23.0838 -2.68065 6.15185 -4.80365 -4.73602 0.73312 -4.32435 -7.73761 -0.544644 -1.51322 1.7944 0.151892 -0.0 0.0 0.0 -0.0 0.0 0.0 -3.30311e-13 -5.00716e-14 -8.01737e-16 44.8015 4.75934 0.250262 -10.8555 -4.67303 19.4573 -0.113059 5.21278 0.806325 6.77079e-10 -1.71166e-09 1.17244e-10 1.16364e-09 -2.96708e-09 1.95539e-10 6.77081e-10 -1.71166e-09 1.1723e-10 7.73091 5.47488 0.417314 6.77074e-10 -1.71166e-09 1.17248e-10 2.90554 0.965183 0.102902 6.77086e-10 -1.71166e-09 1.17241e-10 10.2786 0.731801 0.0259123 6.77081e-10 -1.71166e-09 1.17245e-10 2.22167 -0.733487 -0.20892 -3.30191e-13 -5.00404e-14 -1.01062e-15 -45.4247 8.31654 12.6729 13.8266 -6.81331 -25.2096 0.270538 -14.7193 2.1099 -3.69373e-10 -2.36247e-10 -7.90059e-10 -6.32168e-10 -4.08367e-10 -1.37079e-09 -3.69372e-10 -2.36246e-10 -7.90049e-10 -7.73091 5.47488 -0.417314 -3.69371e-10 -2.36247e-10 -7.90056e-10 -2.90554 0.965183 -0.102902 -3.69378e-10 -2.36247e-10 -7.90055e-10 -10.2786 0.731801 -0.0259123 -3.69368e-10 -2.36247e-10 -7.90063e-10 -2.22167 -0.733487 0.20892 -2.03217e-16 0.0 -3.88251e-19 30.1511 -49.6527 14.2872 -1.52164 66.9185 2.39783 -21.2678 -33.4914 -31.5368 2.03217e-16 0.0 3.88251e-19 24.4516 -67.3699 11.3437 138.986 88.385 -139.667 12.7923 -18.3714 27.2837
6.65949 69.9642 58.7554 -170.796 -3.6206 -159.503 22.6548 -1.32312 6.92024 -4.60837 -5.04675 1.11866 -4.188 -8.13161 -0.390223 -1.95388 1.92949 0.441951 -0.0 0.0 0.0 -0.0 0.0 0.0 -3.67638e-13 -7.31679e-14 1.12313e-14 45.4001 10.6662 2.81083 -12.2221 -5.60557 22.0406 -0.00191889 1.25071 0.175804 6.0019e-10 -1.91027e-09 2.9998e-10 1.03843e-09 -3.30533e-09 5.15074e-10 6.00193e-10 -1.91026e-09 2.99964e-10 7.73091 5.47488 0.417314 6.00186e-10 -1.91026e-09 2.99984e-10 2.90554 0.965183 0.102902 6.00195e-10 -1.91026e-09 2.99977e-10 10.2786 0.731801 0.0259123 6.00193e-10 -1.91027e-09 2.9998e-10 2.22167 -0.733487 -0.20892 -3.67492e-13 -7.31364e-14 1.10325e-14 -48.2616 6.70383 14.7059 13.6246 -6.65546 -24.8018 0.348949 -16.5679 2.39631 -4.83947e-10 -2.8746e-10 -1.00388e-09 -8.27954e-10 -4.93514e-10 -1.7397e-09 -4.83947e-10 -2.87458e-10 -1.00387e-09 -7.73091 5.47488 -0.417314 -4.83946e-10 -2.87459e-10 -1.00387e-09 -2.90554 0.965183 -0.102902 -4.83952e-10 -2.87461e-10 -1.00387e-09 -10.2786 0.731801 -0.0259123 -4.83943e-10 -2.87461e-10 -1.00388e-09 -2.22167 -0.733487 0.20892 -2.03217e-16 0.0 -3.88251e-19 29.2749 -48.3569 13.2974 -1.46472 66.4347 2.37552 -20.5106 -33.5846 -30.4649 2.03217e-16 0.0 3.88251e-19 24.2298 -69.1139 12.0544 143.302 88.2209 -143.994 13.1635 -19.1225 27.4102
6.70211 70.1146 57.849 -170.519 -2.2654 -159.652 22.958 -0.464618 7.3784 -4.65792 -5.46406 1.49754 -3.9385 -8.4839 -0.186774 -2.36781 2.1882 0.78058 -0.0 0.0 0.0 -0.0 0.0 0.0 -3.32327e-13 4.86399e-14 -3.62514e-14 45.5437 16.4875 5.43299 -13.5551 -6.6098 24.6465 -0.03291 -2.9327 -0.405469 3.55885e-10 -9.55709e-10 3.0358e-10 6.11774e-10 -1.64572e-09 5.21055e-10 3.55892e-10 -9.55708e-10 3.03564e-10 7.73091 5.47488 0.417314 3.55883e-10 -9.55708e-10 3.03582e-10 2.90554 0.965183 0.102902 3.5589e-10 -9.55704e-10 3.03576e-10 10.2786 0.731801 0.0259123 3.55887e-10 -9.55708e-10 3.0358e-10 2.22167 -0.733487 -0.20892 -3.32195e-13 4.86664e-14 -3.64502e-14 -50.6976 4.74207 16.7209 13.3557 -6.45011 -24.2591 0.367697 -16.6735 2.41565 -1.57658e-10 8.84336e-10 -6.25318e-10 -2.65082e-10 1.53722e-09 -1.08324e-09 -1.57658e-10 8.84339e-10 -6.25308e-10 -7.73091 5.47488 -0.417314 -1.57657e-10 8.84337e-10 -6.25315e-10 -2.90554 0.965183 -0.102902 -1.57663e-10 8.84336e-10 -6.25315e-10 -10.2786 0.731801 -0.0259123 -1.57653e-10 8.84334e-10 -6.25322e-10 -2.22167 -0.733487 0.20892 -2.03217e-16 0.0 -3.88251e-19 29.8659 -47.0913 13.7543 -1.39138 65.8003 2.35141 -20.4999 -33.6692 -30.3875 2.03217e-16 0.0 3.88251e-19 24.5913 -71.2517 12.7427 144.296 88.1799 -145.01 14.0262 -20.5255 27.9297
6.75848 70.1989 57.0297 -170.021 -1.3715 -159.511 23.5034 0.0462401 7.52248 -4.77947 -5.92434 1.863 -3.62668 -8.80683 0.0546506 -2.75588 2.60659 1.15332 -0.0 0.0 0.0 -0.0 0.0 0.0 -2.45504e-13 2.58014e-13 -1.13677e-13 45.3469 21.5584 8.19927 -14.8719 -7.67259 27.3778 -0.0724451 -6.60148 -0.926356 -6.68708e-11 7.25787e-10 2.44937e-10 -1.26379e-10 1.27617e-09 4.20199e-10 -6.68583e-11 7.25784e-10 2.44923e-10 7.73091 5.47488 0.417314 -6.68673e-11 7.25783e-10 2.44939e-10 2.90554 0.965183 0.102902 -6.68646e-11 7.25792e-10 2.44933e-10 10.2786 0.731801 0.0259123 -6.68691e-11 7.25789e-10 2.44938e-10 2.22167 -0.733487 -0.20892 -2.45411e-13 2.58032e-13 -1.13882e-13 -52.8186 2.61825 18.6866 13.007 -6.18651 -23.5655 0.311693 -15.3587 2.21551 4.15136e-10 2.84482e-09 1.53665e-10 7.2231e-10 4.93356e-09 2.67045e-10 4.15135e-10 2.84482e-09 1.53676e-10 -7.73091 5.47488 -0.417314 4.15135e-10 2.84482e-09 1.53667e-10 -2.90554 0.965183 -0.102902 4.1513e-10 2.84482e-09 1.53667e-10 -10.2786 0.731801 -0.0259123 4.1514e-10 2.84481e-09 1.53659e-10 -2.22167 -0.733487 0.20892 -2.03217e-16 0.0 -3.88251e-19 31.0196 -45.7045 14.929 -1.2942 64.9272 2.31622 -20.9817 -33.7763 -30.9506 2.03217e-16 0.0 3.88251e-19 24.8507 -73.5326 13.0915 138.358 88.4144 -139.102 15.2927 -22.3743 28.7972
6.86103 70.3429 56.2075 -169.184 -0.9149 -159.108 23.9808 0.235626 7.66865 -4.95434 -6.366 2.20587 -3.36246 -9.1044 0.272599 -3.04709 3.08953 1.491 -0.0 0.0 0.0 -0.0 0.0 0.0 -1.42254e-13 4.36577e-13 -1.8063e-13 44.906 26.0402 10.9224 -16.1996 -8.85624 30.1858 -0.127586 -9.97306 -1.41482 -4.98863e-10 2.55057e-09 7.31393e-11 -8.7784e-10 4.44026e-09 1.23768e-10 -4.98846e-10 2.55057e-09 7.31279e-11 7.73091 5.47488 0.417314 -4.98855e-10 2.55057e-09 7.31403e-11 2.90554 0.965183 0.102902 -4.98856e-10 2.55058e-09 7.31354e-11 10.2786 0.731801 0.0259123 -4.98863e-10 2.55058e-09 7.31416e-11 2.22167 -0.733487 -0.20892 -1.42203e-13 4.36585e-13 -1.80839e-13 -54.6799 0.748981 20.6108 12.6857 -5.94496 -22.9383 0.254125 -13.9486 2.00302 8.90765e-10 4.67459e-09 9.2331e-10 1.54154e-09 8.1026e-09 1.59985e-09 8.90763e-10 4.6746e-09 9.23322e-10 -7.73091 5.47488 -0.417314 8.90763e-10 4.6746e-09 9.23311e-10 -2.90554 0.965183 -0.102902 8.90758e-10 4.67459e-09 9.2331e-10 -10.2786 0.731801 -0.0259123 8.90769e-10 4.67459e-09 9.23302e-10 -2.22167 -0.733487 0.20892 -2.03217e-16 0.0 -3.88251e-19 32.1255 -44.2932 16.334 -1.18101 63.7961 2.26764 -21.5527 -33.8581 -31.6421 2.03217e-16 0.0 3.88251e-19 24.9663 -75.7744 13.273 114.502 88.8605 -115.275 16.6376 -24.1747 29.7797
6.90966 70.5968 55.37 -168.361 -0.5333 -158.376 24.0719 0.128689 8.13372 -5.16557 -6.72757 2.51669 -3.25702 -9.38077 0.405422 -3.16591 3.54206 1.72421 -0.0 0.0 0.0 -0.0 0.0 0.0 -5.76621e-14 4.65952e-13 -1.96697e-13 44.3572 30.1233 13.3833 -17.5546 -10.2157 33.0285 -0.220791 -13.2649 -1.89865 -7.70879e-10 3.93501e-09 -2.62727e-10 -1.34443e-09 6.82645e-09 -4.5698e-10 -7.70859e-10 3.935e-09 -2.62736e-10 7.73091 5.47488 0.417314 -7.70868e-10 3.935e-09 -2.62727e-10 2.90554 0.965183 0.102902 -7.70871e-10 3.93501e-09 -2.62731e-10 10.2786 0.731801 0.0259123 -7.70879e-10 3.93501e-09 -2.62723e-10 2.22167 -0.733487 -0.20892 -5.76368e-14 4.65952e-13 -1.96896e-13 -56.3913 -0.470015 22.4833 12.506 -5.80994 -22.5937 0.238337 -13.7696 1.97371 9.2556e-10 5.45428e-09 1.27385e-09 1.59993e-09 9.45146e-09 2.20389e-09 9.25556e-10 5.45428e-09 1.27387e-09 -7.73091 5.47488 -0.417314 9.25557e-10 5.45428e-09 1.27385e-09 -2.90554 0.965183 -0.102902 9.25551e-10 5.45428e-09 1.27385e-09 -10.2786 0.731801 -0.0259123 9.25564e-10 5.45428e-09 1.27384e-09 -2.22167 -0.733487 0.20892 -2.03217e-16 0.0 -3.88251e-19 32.644 -42.9662 17.5338 -1.06089 62.3878 2.20465 -21.8012 -33.8798 -31.9469 2.03217e-16 0.0 3.88251e-19 25.0031 -77.7921 13.5544 54.042 88.7502 -54.8337 17.6698 -25.4611 30.5888
